<?xml version="1.0" encoding="UTF-8"?>
<!DOCTYPE svg PUBLIC "-//W3C//DTD SVG 1.1//EN" "http://www.w3.org/Graphics/SVG/1.1/DTD/svg11.dtd">
<!-- Creator: CorelDRAW 2019 (64-Bit) -->
<svg xmlns="http://www.w3.org/2000/svg" xml:space="preserve" width="141.252mm" height="38.3213mm" version="1.1" shape-rendering="geometricPrecision" text-rendering="geometricPrecision" image-rendering="optimizeQuality" fill-rule="evenodd" clip-rule="evenodd"
viewBox="0 0 11931.03 3236.86"
 xmlns:xlink="http://www.w3.org/1999/xlink"
 xmlns:xodm="http://www.corel.com/coreldraw/odm/2003">
 <g id="Слой_x0020_1">
  <metadata id="CorelCorpID_0Corel-Layer"/>
  <path fill="#2B2A29" fill-rule="nonzero" d="M3929.51 1280.89l0 -129.91c-18.03,-3.9 -38.55,-7.8 -61.55,-12.82 -23.63,-4.46 -49.13,-9.48 -77.11,-14.49 -29.22,-5.02 -59.68,-9.48 -92.64,-12.82 -32.95,-3.34 -67.15,-5.02 -102.59,-5.02 -144.88,0 -261.78,27.87 -351.93,83.63 -90.16,55.75 -134.93,140.49 -134.93,254.78 0,64.12 21.14,122.65 62.8,175.06 41.66,52.41 88.29,95.89 141.14,129.91 61.56,37.91 123.73,70.8 187.78,98.12 63.42,27.32 120.63,55.75 172.24,84.74 50.99,28.43 92.64,60.22 124.98,94.78 32.33,35.12 48.51,78.61 48.51,131.57 -1.87,42.93 -13.69,81.4 -35.45,114.85 -21.76,33.46 -46.01,60.22 -72.13,79.73 -39.8,28.43 -85.81,46.83 -138.65,54.63 -52.86,8.37 -105.71,10.04 -159.81,6.13 -54.09,-3.9 -105.07,-11.71 -152.34,-23.41 -47.88,-11.71 -86.43,-24.53 -115.65,-37.35 -24.25,-3.9 -44.14,-0.56 -58.44,10.59 -14.93,11.15 -23,24.53 -24.87,40.7 -3.11,15.62 0.62,31.78 11.19,47.95 10.57,16.17 27.98,27.32 52.84,32.33 21.77,5.02 53.48,10.59 94.52,16.72 40.41,6.13 86.42,10.03 138.04,12.82 49.73,3.9 101.35,5.57 154.82,4.46 52.86,-1.67 102.6,-7.8 147.99,-18.4 108.19,-23.41 192.14,-66.9 251.2,-130.46 59.08,-63.55 88.29,-142.72 88.29,-236.95 0,-68.58 -19.89,-126.56 -59.07,-174.51 -39.18,-47.39 -87.67,-89.75 -144.88,-126.56 -56.58,-36.79 -116.9,-69.13 -180.32,-96.44 -64.04,-27.32 -120,-55.2 -168.5,-82.52 -70.26,-39.59 -118.76,-77.5 -146.74,-114.29 -27.98,-36.24 -41.66,-80.29 -41.66,-131.57 0,-63 26.12,-112.62 78.97,-149.42 52.85,-36.79 119.38,-55.19 199.59,-55.19 45.39,2.79 87.05,7.25 124.98,13.38 37.93,6.69 71.51,13.94 100.73,22.3 30.47,7.8 57.21,15.61 80.22,23.41 23,7.8 42.28,14.49 58.44,19.52zm708.22 -49.07l0 1272.26 173.48 0 0 -1272.26 210.79 0c24.25,0 46.02,1.11 64.67,3.9 18.03,2.79 32.95,6.13 44.77,10.03 19.28,7.8 34.19,18.95 46.01,32.9 11.81,14.49 20.53,30.1 26.13,47.39 7.46,17.28 13.05,34.56 16.78,52.96 3.73,18.41 6.84,35.13 9.95,49.62 3.11,19.51 15.54,28.99 38.54,28.43 22.38,-0.56 34.2,-10.03 36.07,-28.43l-11.19 -297.16 -1138.49 0 -11.19 297.16c-1.24,17.28 9.95,26.2 33.58,27.32 23,1.67 36.68,-7.8 41.03,-27.32 1.87,-11.71 3.11,-26.2 4.98,-42.38 1.24,-16.17 4.98,-34.01 10.57,-52.4 5.6,-16.72 14.93,-32.89 27.36,-49.06 12.43,-15.62 31.08,-28.44 55.97,-39.03 13.06,-3.9 28.6,-7.25 46.63,-10.03 17.41,-2.79 38.55,-3.9 62.8,-3.9l210.79 0zm1103.67 491.73l0 -503.44c0,-22.3 -7.47,-42.37 -21.77,-60.22 -14.92,-17.28 -39.78,-26.2 -75.23,-26.2l-243.11 0c-14.31,0 -25.5,2.79 -33.58,8.36 -8.08,6.13 -12.43,13.38 -12.43,22.87 0,11.71 4.35,21.18 12.43,28.43 8.08,7.25 19.9,11.15 35.45,11.15 14.92,0 32.33,1.67 52.85,5.57 20.52,3.9 37.3,10.03 50.36,17.84 26.74,18.4 43.53,40.7 50.99,67.46 6.83,27.32 10.57,55.75 10.57,85.85l0 1117.27 173.48 0 0 -669.02 708.22 0 0 669.02 173.47 0 0 -1367.04 -173.47 0 0 592.08 -708.22 0zm2186.82 -592.08l-1042.11 0c-13.06,0 -23.63,3.34 -32.33,9.48 -9.33,6.69 -13.06,14.49 -11.19,23.98 0,10.59 3.73,18.95 11.19,26.2 6.84,7.25 18.65,11.15 34.83,11.15 14.3,2.79 31.71,6.69 51.61,11.71 19.27,5.02 33.57,10.59 42.9,15.61 21.76,14.49 36.68,30.66 46.02,49.07 8.7,18.4 13.05,51.29 13.05,98.67l0 1126.75 923.35 0 15.54 -263.15c0,-19.51 -11.19,-30.66 -34.2,-32.89 -23,-1.67 -36.06,8.36 -40.41,30.66 -3.11,10.59 -5.61,21.74 -7.47,33.45 -2.49,11.71 -5.6,22.86 -9.95,33.46 -3.11,11.71 -8.08,22.86 -13.68,33.45 -5.59,10.59 -13.05,19.51 -21.76,27.32 -17.41,17.28 -37.3,28.99 -59.07,35.68 -21.77,6.69 -50.37,10.03 -85.81,10.03l-311.5 0c-81.46,0 -133.08,-7.8 -154.21,-23.97 -21.76,-15.61 -32.33,-46.83 -32.33,-94.22l0 -454.38 351.31 0c49.74,0 87.68,3.9 113.17,11.72 25.49,7.8 44.76,18.4 57.82,31.78 21.76,22.3 34.82,45.16 38.55,68.57 3.74,23.98 5.6,35.69 5.6,35.69 0,18.4 11.82,27.32 34.82,27.32 23.01,0 34.82,-8.92 34.82,-27.32l0 -387.48c0,-18.4 -10.57,-27.32 -32.33,-26.76 -21.76,0.56 -32.95,10.03 -32.95,28.43 0,40.7 -9.34,70.25 -28.61,88.65 -19.28,18.4 -46.01,31.78 -81.45,41.25 -14.3,3.91 -31.1,7.26 -49.13,8.93 -18.03,1.67 -38.55,2.79 -60.31,2.79l-351.31 0 0 -383.58c0,-32.89 2.49,-56.86 6.84,-71.91 4.35,-15.06 14.3,-27.32 28.6,-37.92 13.06,-10.59 27.37,-17.28 41.67,-20.07 14.3,-2.79 34.82,-3.9 61.55,-3.9l311.52 0c47.87,0 84.55,4.46 109.43,13.94 24.88,9.48 42.91,20.07 54.72,31.78 14.3,18.41 25.49,40.15 32.95,66.35 7.47,26.2 11.19,39.58 11.19,39.58 1.25,22.31 13.06,32.9 36.08,32.34 23,-0.56 34.19,-11.71 34.19,-32.34l-11.19 -245.86zm690.8 100.35l0 1272.26 173.48 0 0 -1272.26 210.79 0c24.25,0 46.02,1.11 64.67,3.9 18.03,2.79 32.95,6.13 44.77,10.03 19.28,7.8 34.19,18.95 46.01,32.9 11.81,14.49 20.53,30.1 26.13,47.39 7.46,17.28 13.05,34.56 16.78,52.96 3.73,18.41 6.84,35.13 9.95,49.62 3.11,19.51 15.54,28.99 38.54,28.43 22.38,-0.56 34.2,-10.03 36.07,-28.43l-11.19 -297.16 -1138.49 0 -11.19 297.16c-1.24,17.28 9.95,26.2 33.58,27.32 23,1.67 36.68,-7.8 41.03,-27.32 1.87,-11.71 3.11,-26.2 4.98,-42.38 1.24,-16.17 4.98,-34.01 10.57,-52.4 5.6,-16.72 14.93,-32.89 27.36,-49.06 12.43,-15.62 31.08,-28.44 55.97,-39.03 13.06,-3.9 28.6,-7.25 46.63,-10.03 17.41,-2.79 38.55,-3.9 62.8,-3.9l210.79 0zm864.29 -3.9c26.74,18.4 43.53,40.14 50.98,65.79 6.84,25.64 10.58,54.63 10.58,87.52l0 1118.94 175.34 0 0 -1280.06c0,-22.3 -6.83,-42.37 -20.52,-60.22 -14.3,-17.28 -38.54,-26.2 -73.99,-26.2l-247.46 0c-14.31,0 -25.5,2.79 -33.58,8.36 -8.08,6.13 -12.43,13.38 -12.43,22.87 0,11.71 4.35,21.18 12.43,28.43 8.08,7.25 19.89,11.15 35.45,11.15 14.92,0 32.33,1.67 52.84,5.57 20.52,3.9 37.31,10.03 50.37,17.84zm1748.46 1191.98c15.54,-9.49 26.74,-20.08 32.96,-32.9 5.6,-12.26 7.47,-23.41 4.36,-34.01 -3.11,-9.48 -9.33,-16.72 -18.66,-22.86 -9.33,-6.13 -19.9,-7.8 -31.72,-5.02 -42.9,22.3 -90.77,40.14 -144.87,52.96 -54.09,13.38 -109.43,22.86 -164.78,27.87 -54.1,5.02 -105.08,5.57 -154.19,1.67 -49.13,-3.9 -88.3,-11.71 -117.52,-23.41 -159.81,-61.88 -270.48,-143.84 -332.66,-246.98 -62.18,-102.58 -93.27,-230.81 -93.27,-384.13 0,-107.6 18.65,-196.25 55.34,-266.5 36.68,-70.24 80.83,-126.56 133.69,-168.37 52.85,-40.7 108.81,-69.14 167.88,-85.3 59.08,-16.17 111.3,-24.53 156.69,-24.53 50.99,0 96.38,6.69 136.79,20.63 40.43,13.94 73.38,30.66 100.11,50.18 27.98,19.51 49.13,40.7 63.43,63.55 14.3,22.86 21.76,42.93 21.76,60.22l199.59 0c0,-32.9 -12.43,-66.91 -37.31,-102.58 -24.87,-35.13 -59.68,-67.46 -105.08,-95.89 -44.14,-27.87 -97.61,-51.3 -161.04,-70.25 -64.04,-18.95 -134.31,-28.43 -212.04,-28.43 -59.68,0 -118.13,5.02 -175.96,15.61 -57.82,10.59 -113.16,27.32 -166.01,49.62 -122.49,52.4 -215.76,134.36 -278.56,246.42 -62.8,112.06 -94.51,235.27 -94.51,369.08 3.11,157.22 40.41,289.91 113.17,398.06 72.74,108.16 168.49,192.35 288.5,252.56 62.79,32.89 133.06,54.63 210.79,65.22 77.72,10.59 154.2,13.94 230.05,10.03 75.86,-5.57 147.37,-16.72 213.89,-33.45 66.54,-17.28 119.38,-36.79 159.18,-59.09z"/>
  <path fill="none" fill-rule="nonzero" stroke="#2B2A29" stroke-width="8.4" stroke-miterlimit="10" d="M3871.11 1261.31c-22.68,-7.86 -49.35,-15.74 -80.07,-23.6 -29.26,-7.86 -62.88,-15.04 -100.9,-21.63 -38.05,-6.55 -79.74,-11.12 -125.04,-13.77 -80.45,0 -146.96,18.39 -199.61,55.06 -52.62,36.74 -78.97,86.54 -78.97,149.5 0,51.14 13.89,95.08 41.68,131.77 27.75,36.71 76.76,74.74 146.96,114.06 48.27,27.54 104.17,55.07 167.79,82.6 63.62,27.57 123.93,59.69 180.96,96.4 57.04,36.71 105.31,78.99 144.79,126.85 39.48,47.88 59.21,105.9 59.21,174.04 0,94.43 -29.59,173.43 -88.83,237.01 -59.24,63.62 -142.97,107.19 -251.14,130.79 -45.35,10.48 -94.73,16.39 -148.1,17.7 -53.4,1.31 -104.95,0 -154.62,-3.94 -51.23,-2.62 -97.3,-6.88 -138.2,-12.78 -40.94,-5.9 -72.38,-11.5 -94.32,-16.72 -24.88,-5.25 -42.43,-16.03 -52.65,-32.45 -10.25,-16.36 -13.92,-32.45 -10.97,-48.18 1.44,-15.74 9.51,-29.17 24.11,-40.32 14.64,-11.12 34.36,-14.76 59.24,-10.82 29.23,13.11 67.64,25.57 115.17,37.37 47.5,11.8 98.33,19.66 152.45,23.6 54.08,3.94 107.48,1.97 160.13,-5.9 52.62,-7.86 98.69,-26.22 138.17,-55.06 26.35,-19.66 50.45,-46.21 72.41,-79.68 21.93,-33.43 33.61,-71.79 35.07,-115.02 0,-52.45 -16.09,-96.07 -48.25,-130.81 -32.18,-34.75 -73.87,-66.54 -125.03,-95.39 -51.2,-28.81 -108.58,-57.03 -172.18,-84.59 -63.61,-27.5 -126.13,-60.28 -187.54,-98.3 -52.66,-34.09 -99.82,-77.39 -141.48,-129.83 -41.69,-52.45 -62.55,-110.79 -62.55,-175.03 0,-114.06 44.96,-198.96 134.93,-254.71 89.92,-55.72 207.27,-83.59 352.06,-83.59 35.08,0 69.1,1.64 102,4.92 32.9,3.28 63.95,7.57 93.21,12.79 27.77,5.25 53.37,10.16 76.79,14.75 23.36,4.62 43.86,8.85 61.42,12.78l0 129.8c-16.12,-5.21 -35.49,-11.8 -58.14,-19.66z"/>
  <path fill="none" fill-rule="nonzero" stroke="#2B2A29" stroke-width="8.4" stroke-miterlimit="10" d="M4427.17 1231.82c-24.88,0 -46.07,1.31 -63.62,3.94 -17.55,2.65 -32.89,5.9 -46.07,9.83 -24.88,10.49 -43.53,23.6 -55.93,39.34 -12.46,15.73 -21.61,32.15 -27.42,49.17 -5.87,18.38 -9.54,35.72 -10.96,52.12 -1.49,16.41 -2.95,30.48 -4.41,42.31 -4.38,19.64 -18.27,28.85 -41.66,27.5 -23.42,-1.28 -34.39,-10.46 -32.9,-27.5l10.97 -296.99 1138.42 0 10.97 296.99c-1.46,18.35 -13.53,27.87 -36.18,28.52 -22.7,0.66 -35.46,-8.88 -38.41,-28.52 -2.96,-14.42 -6.23,-30.81 -9.87,-49.19 -3.67,-18.35 -9.15,-36.06 -16.45,-53.1 -5.87,-17.01 -14.64,-32.75 -26.35,-47.2 -11.71,-14.42 -27.05,-25.57 -46.07,-33.43 -11.71,-3.94 -26.67,-7.18 -44.94,-9.83 -18.32,-2.63 -39.87,-3.94 -64.72,-3.94l-210.58 0 0 1272.52 -173.27 0 0 -1272.52 -210.58 0z"/>
  <path fill="none" fill-rule="nonzero" stroke="#2B2A29" stroke-width="8.4" stroke-miterlimit="10" d="M6449.58 1723.51l0 -591.99 173.27 0 0 1366.92 -173.27 0 0 -668.73 -708.5 0 0 668.73 -173.31 0 0 -1117.15c0,-30.16 -3.67,-58.68 -10.96,-85.56 -7.33,-26.84 -24.14,-49.49 -50.45,-67.84 -13.17,-7.87 -29.98,-13.77 -50.44,-17.7 -20.5,-3.94 -38.05,-5.9 -52.62,-5.9 -16.12,0 -28.22,-3.61 -36.21,-10.82 -8.07,-7.21 -12.06,-16.72 -12.06,-28.52 0,-9.18 3.99,-16.72 12.06,-22.62 7.99,-5.9 19.34,-8.84 33.97,-8.84l243.48 0c35.1,0 59.95,8.84 74.58,26.55 14.63,17.7 21.96,37.69 21.96,59.98l0 503.5 708.5 0z"/>
  <path fill="none" fill-rule="nonzero" stroke="#2B2A29" stroke-width="8.4" stroke-miterlimit="10" d="M7938.95 1377.36c0,20.98 -11.33,31.79 -34,32.45 -22.68,0.68 -34.75,-10.14 -36.18,-32.45 -14.66,-52.41 -29.29,-87.85 -43.86,-106.2 -11.74,-11.8 -30.01,-22.29 -54.86,-31.5 -24.88,-9.15 -61.41,-13.77 -109.68,-13.77l-311.48 0c-26.31,0 -46.81,1.34 -61.39,3.96 -14.65,2.63 -28.52,9.18 -41.71,19.64 -14.64,10.52 -24.11,23.3 -28.52,38.38 -4.35,15.08 -6.55,39.03 -6.55,71.78l0 383.54 350.97 0c21.93,0 42.01,-0.99 60.31,-2.96 18.3,-1.97 34.72,-4.92 49.37,-8.84 35.07,-9.18 62.1,-22.95 81.14,-41.3 19.01,-18.35 28.52,-47.86 28.52,-88.53 0,-18.33 10.97,-27.83 32.93,-28.52 21.93,-0.63 32.87,8.23 32.87,26.55l0 387.46c0,18.38 -11.68,27.56 -35.1,27.56 -23.39,0 -35.07,-9.18 -35.07,-27.56 -7.33,-47.2 -21.96,-81.92 -43.86,-104.23 -13.17,-13.08 -32.57,-23.6 -58.14,-31.47 -25.59,-7.86 -63.26,-11.8 -112.96,-11.8l-350.97 0 0 454.33c0,47.2 10.58,78.67 31.79,94.4 21.19,15.77 72.74,23.6 154.66,23.6l311.48 0c35.1,0 63.61,-3.24 85.55,-9.8 21.93,-6.55 41.68,-18.35 59.24,-35.43 8.76,-7.84 16.06,-17.01 21.9,-27.53 5.87,-10.47 10.22,-21.64 13.2,-33.44 4.35,-10.46 7.63,-21.63 9.86,-33.43 2.18,-11.8 4.71,-22.92 7.66,-33.43 4.38,-22.26 17.91,-32.45 40.59,-30.48 22.68,1.97 34,12.79 34,32.45l-15.35 263.56 -923.46 0 0 -1126.98c0,-47.2 -4.41,-79.98 -13.17,-98.34 -8.79,-18.35 -24.11,-34.74 -46.07,-49.17 -8.79,-5.24 -23.03,-10.48 -42.77,-15.76 -19.76,-5.21 -36.98,-9.15 -51.58,-11.8 -16.09,0 -27.77,-3.57 -35.07,-10.79 -7.37,-7.2 -11,-16.06 -11,-26.55 -1.44,-9.18 2.23,-17.05 11,-23.6 8.76,-6.55 19.75,-9.83 32.89,-9.83l1041.94 0 10.94 245.83z"/>
  <path fill="none" fill-rule="nonzero" stroke="#2B2A29" stroke-width="8.4" stroke-miterlimit="10" d="M8408.32 1231.82c-24.88,0 -46.07,1.31 -63.62,3.94 -17.55,2.65 -32.87,5.9 -46.07,9.83 -24.88,10.49 -43.5,23.6 -55.93,39.34 -12.43,15.73 -21.58,32.15 -27.42,49.17 -5.87,18.38 -9.54,35.72 -10.96,52.12 -1.5,16.41 -2.92,30.48 -4.38,42.31 -4.41,19.64 -18.3,28.85 -41.68,27.5 -23.4,-1.28 -34.36,-10.46 -32.9,-27.5l10.96 -296.99 1138.43 0 10.96 296.99c-1.46,18.35 -13.52,27.87 -36.17,28.52 -22.68,0.66 -35.46,-8.88 -38.42,-28.52 -2.91,-14.42 -6.23,-30.81 -9.86,-49.19 -3.67,-18.35 -9.12,-36.06 -16.42,-53.1 -5.9,-17.01 -14.66,-32.75 -26.35,-47.2 -11.74,-14.42 -27.05,-25.57 -46.07,-33.43 -11.74,-3.94 -26.7,-7.18 -44.96,-9.83 -18.3,-2.63 -39.87,-3.94 -64.72,-3.94l-210.56 0 0 1272.52 -173.3 0 0 -1272.52 -210.58 0z"/>
  <path fill="none" fill-rule="nonzero" stroke="#2B2A29" stroke-width="8.4" stroke-miterlimit="10" d="M9432.68 1210.18c-20.47,-3.94 -38.02,-5.9 -52.65,-5.9 -16.12,0 -28.16,-3.61 -36.18,-10.81 -8.07,-7.21 -12.1,-16.72 -12.1,-28.52 0,-9.18 4.02,-16.72 12.1,-22.62 8.02,-5.9 19.34,-8.85 33.97,-8.85l247.88 0c35.07,0 59.57,8.85 73.49,26.56 13.89,17.7 20.85,37.69 20.85,59.98l0 1280.38 -175.5 0 0 -1119.12c0,-32.75 -3.67,-61.95 -10.97,-87.52 -7.32,-25.57 -24.13,-47.53 -50.44,-65.88 -13.17,-7.86 -29.98,-13.77 -50.45,-17.7z"/>
  <path fill="none" fill-rule="nonzero" stroke="#2B2A29" stroke-width="8.4" stroke-miterlimit="10" d="M11072.32 2478.78c-66.54,17.01 -137.85,28.16 -213.89,33.43 -76.01,3.94 -152.8,0.66 -230.31,-9.83 -77.53,-10.52 -147.71,-32.12 -210.58,-64.9 -119.9,-60.31 -216.07,-144.57 -288.41,-252.74 -72.41,-108.17 -110.08,-240.95 -112.99,-398.28 0,-133.74 31.43,-256.69 94.34,-368.78 62.84,-112.1 155.72,-194.37 278.54,-246.84 52.66,-22.27 107.84,-38.65 165.62,-49.14 57.74,-10.52 116.6,-15.76 176.58,-15.76 77.47,0 148.04,9.54 211.69,28.52 63.61,19.04 117.34,42.32 161.2,69.85 45.32,28.85 80.42,60.97 105.3,96.37 24.85,35.4 37.31,69.52 37.31,102.26l-199.64 0c0,-17.01 -7.33,-37.04 -21.94,-59.98 -14.63,-22.92 -35.85,-44.25 -63.62,-63.92 -26.31,-19.66 -59.59,-36.38 -99.79,-50.15 -40.23,-13.77 -85.91,-20.65 -137.1,-20.65 -45.32,0 -97.59,8.19 -156.83,24.58 -59.24,16.39 -115.17,44.91 -167.79,85.56 -52.66,41.98 -97.29,98.03 -133.82,168.15 -36.57,70.17 -54.86,159.03 -54.86,266.51 0,153.4 31.05,281.59 93.24,384.52 62.13,102.95 172.91,185.22 332.33,246.84 29.23,11.8 68.36,19.66 117.34,23.6 48.99,3.9 100.51,3.28 154.65,-1.97 55.55,-5.25 110.41,-14.42 164.52,-27.56 54.08,-13.08 102.36,-30.78 144.79,-53.07 11.65,-2.63 22.26,-1.01 31.79,4.92 9.48,5.87 15.67,13.44 18.62,22.59 2.95,10.52 1.46,22 -4.38,34.45 -5.87,12.46 -16.83,23.27 -32.9,32.45 -39.48,22.32 -92.52,41.95 -159.02,59z"/>
  <path fill="#2B2A29" fill-rule="nonzero" d="M8902.04 3226.63l-53.93 0 0 -292.25 -290.55 0 0 292.25 -54.17 0 0 -481.74c0,-14.33 -1.46,-27.7 -4.62,-40.32 -3.16,-12.39 -10.44,-23.08 -21.86,-31.58 -2.91,-1.7 -5.83,-3.16 -8.51,-4.38 -2.91,-1.21 -6.07,-1.94 -9.47,-2.42 -2.92,-0.73 -6.07,-1.22 -9.48,-1.94 -3.4,-0.49 -6.56,-0.97 -9.48,-1.46 -8.5,-0.73 -12.39,-5.1 -12.15,-13.12 0.24,-8.02 4.13,-11.9 12.15,-11.9l86.73 0c10.93,0 18.7,3.16 23.57,9.47 4.86,6.32 7.28,13.36 7.28,21.38l0 224.47 290.55 0 0 -255.32 53.93 0 0 588.87zm670 -298.32c0,45.67 -6.07,87.21 -18.23,124.62 -12.38,37.41 -29.88,69.24 -52.72,95.71 -23.08,26.24 -51.01,46.41 -84.05,60.74 -33.28,14.33 -70.45,21.38 -111.5,21.38 -42.76,0 -80.65,-7.04 -113.94,-21.38 -33.28,-14.33 -61.21,-34.74 -84.05,-61.71 -22.83,-26.24 -40.08,-58.05 -51.74,-95.23 -11.66,-37.17 -17.49,-78.22 -17.49,-123.16 0,-45.19 6.32,-86.49 18.95,-123.9 12.38,-37.42 30.37,-69.24 53.69,-95.47 23.57,-26.48 51.74,-46.89 84.53,-61.47 32.8,-14.57 69.24,-21.86 109.32,-21.86 40.08,0 76.52,7.04 109.32,21.38 32.8,14.33 60.73,34.73 84.3,60.98 23.57,26.24 41.54,57.82 54.41,94.98 12.88,37.17 19.2,78.71 19.2,124.39zm-61.71 0c0,-33.77 -3.89,-66.32 -11.41,-97.66 -7.78,-31.34 -19.93,-59.52 -36.45,-84.05 -16.76,-24.06 -37.89,-43.49 -63.89,-58.31 -25.99,-14.82 -57.33,-22.1 -93.77,-22.1 -36.2,0 -67.05,7.29 -93.05,21.86 -25.99,14.58 -47.61,33.77 -64.62,57.82 -16.76,24.54 -28.9,52.48 -36.93,84.3 -8.02,31.83 -12.15,64.86 -12.15,99.12 0,31.82 3.65,63.4 11.17,94.49 7.53,31.35 19.44,58.8 35.96,82.84 16.76,24.54 38.14,44.45 64.38,59.52 26.24,15.31 58.3,22.84 95.95,22.84 36.68,0 68.02,-7.29 94.01,-21.87 26,-14.57 47.13,-34.25 63.65,-58.79 16.03,-24.05 27.93,-51.74 35.71,-83.08 7.53,-31.34 11.41,-63.65 11.41,-96.93zm267.46 -259.7l0 340.35c0,25.02 1.95,48.83 5.59,70.93 3.64,22.35 10.93,41.79 21.86,58.31 10.94,17.25 25.75,30.61 44.94,40.32 19.19,9.71 44.22,14.58 75.07,14.58 33.04,0 59.76,-4.38 80.41,-12.88 20.65,-8.5 36.93,-20.89 48.83,-36.68 11.42,-16.04 19.19,-35.48 23.32,-58.06 3.89,-22.59 5.83,-47.38 5.83,-74.83l0 -372.89 46.4 0 0 371.92c0,26.48 -2.18,52.96 -6.31,79.44 -4.38,26.48 -13.61,50.29 -27.94,71.42 -14.33,21.61 -35.22,39.11 -62.19,52.23 -27.21,13.36 -63.4,19.93 -108.35,19.93 -42.51,0 -76.76,-6.07 -103,-18.46 -26.24,-12.39 -46.41,-28.42 -60.74,-48.59 -14.82,-19.93 -25.02,-42.76 -30.37,-68.51 -5.58,-25.75 -8.02,-51.99 -7.53,-78.71l0 -274.27c0,-14.33 -1.46,-27.7 -4.62,-40.09 -3.16,-12.15 -10.44,-22.59 -21.86,-31.09 -2.91,-1.7 -5.83,-3.16 -8.51,-4.38 -2.91,-1.21 -6.07,-1.94 -9.47,-2.42 -2.92,-0.73 -6.07,-1.22 -9.48,-1.94 -3.4,-0.49 -6.56,-0.97 -9.48,-1.46 -8.5,-0.73 -12.39,-5.1 -12.15,-13.12 0.24,-8.02 4.13,-11.9 12.15,-11.9l86.73 0c10.93,0 18.7,3.16 23.57,9.47 4.86,6.32 7.28,13.36 7.28,21.38zm835.68 400.35c0,39.35 -10.44,73.12 -31.58,101.06 -21.13,27.94 -52.23,46.64 -92.79,55.64 -17.25,4.61 -35.96,7.28 -56.12,8.02 -20.16,0.48 -40.08,-0.24 -59.52,-1.94 -19.44,-1.71 -37.66,-4.13 -54.42,-6.81 -16.76,-2.91 -29.88,-6.07 -39.11,-9.47 -6.8,-2.19 -11.42,-6.56 -14.09,-12.88 -2.68,-6.31 -3.4,-12.63 -2.19,-18.95 0.73,-5.58 3.16,-10.69 7.53,-15.31 4.13,-4.61 9.97,-6.55 17.49,-6.07 12.39,7.53 28.42,14.09 47.86,19.68 19.44,5.83 39.84,9.47 60.98,11.17 21.13,1.7 41.54,0.97 61.7,-2.68 19.93,-3.4 36.93,-11.17 51.26,-23.08 11.42,-8.99 20.89,-20.65 27.93,-34.98 7.04,-14.33 10.93,-31.58 11.66,-52.23 0,-23.08 -6.07,-42.51 -18.46,-58.54 -12.39,-15.8 -28.18,-30.13 -47.61,-42.76 -19.44,-13.12 -41.3,-26 -65.83,-38.63 -24.54,-12.39 -49.56,-27.21 -74.83,-44.45 -19.19,-14.33 -36.68,-32.32 -51.98,-53.93 -15.55,-21.62 -23.32,-45.92 -23.32,-72.88 0,-47.86 16.28,-83.57 48.59,-107.14 32.31,-23.57 75.79,-35.22 130.45,-35.22 25.75,0 50.05,1.94 72.64,6.07 22.59,4.13 40.57,7.77 54.17,11.17l0 47.12c-13.6,-5.1 -31.34,-10.69 -53.44,-16.28 -22.1,-5.58 -49.31,-9.47 -81.86,-11.17 -33.77,0 -60.74,7.53 -81.38,22.59 -20.65,15.31 -30.86,37.41 -30.86,66.57 0,23.56 5.1,43.72 15.06,60.49 9.96,16.76 29.39,34.5 58.55,52.72 17.73,11.42 39.11,22.84 63.65,34.5 24.54,11.9 47.86,25.51 70.21,40.81 22.1,15.31 41.05,33.28 56.6,53.44 15.31,20.41 23.08,45.19 23.08,74.34zm495.34 42.03l-6.07 115.63 -347.88 0 0 -484.16c0,-17.25 -1.46,-30.61 -4.62,-40.09 -3.16,-9.48 -9.48,-17.97 -18.46,-25.99 -4.13,-3.4 -9.47,-6.32 -16.28,-8.51 -7.04,-2.19 -13.6,-3.4 -19.67,-3.4 -9.72,0 -14.58,-4.37 -14.58,-13.35 0,-9 4.61,-13.36 13.61,-13.36l392.57 0 4.13 102.03c0,4.62 -3.16,6.81 -9.72,6.81 -6.55,0 -9.96,-2.68 -9.96,-7.78 0,0 -1.7,-5.35 -5.1,-16.28 -3.4,-10.93 -8.02,-20.16 -13.6,-28.18 -5.1,-6.32 -12.88,-11.42 -23.08,-15.06 -10.44,-3.65 -25.75,-5.59 -46.4,-5.59l-113.94 0c-10.93,0 -19.44,0.73 -25.75,2.19 -6.32,1.46 -12.88,4.38 -19.68,8.99 -6.32,5.1 -10.45,11.42 -12.39,18.95 -2.19,7.53 -3.16,19.19 -3.16,34.98l0 161.31 138.96 0c9,0 17.98,-0.24 26.48,-0.97 8.51,-0.48 15.8,-1.94 21.38,-4.13 11.91,-4.61 21.62,-10.69 28.91,-18.22 7.04,-7.29 10.69,-19.44 10.69,-36.68 0,-4.61 3.4,-7.04 10.2,-7.28 6.81,-0.24 10.2,1.7 10.2,6.31l0 160.33c0,6.81 -3.64,10.2 -11.17,10.2 -7.53,0 -11.17,-3.4 -11.17,-10.2 0,0 -0.73,-4.61 -2.42,-14.09 -1.71,-9.47 -7.04,-19.19 -15.55,-29.64 -6.07,-6.8 -14.82,-11.66 -25.99,-14.57 -11.17,-2.91 -25.03,-4.38 -41.55,-4.38l-138.96 0 0 194.59c0,8.02 0.97,16.28 3.16,24.54 1.94,8.26 5.84,14.58 11.42,19.19 7.04,5.59 14.82,9.48 23.81,11.42 8.74,2.19 22.35,3.16 40.57,3.16l116.61 0c17.73,0 31.58,-2.19 41.54,-6.8 9.96,-4.62 17.49,-10.45 22.59,-17.98 5.1,-8.02 8.99,-16.76 11.17,-25.75 2.18,-8.99 4.37,-18.46 6.07,-28.18 1.21,-6.32 5.34,-9 12.38,-8.26 7.04,0.73 10.69,3.64 10.69,8.26z"/>
  <path fill="none" fill-rule="nonzero" stroke="#2B2A29" stroke-width="6.44" stroke-miterlimit="10" d="M8902.03 2637.8l-54 0 0 255.4 -290.53 0 0 -224.53c0,-8.02 -2.44,-15.14 -7.3,-21.45 -4.86,-6.26 -12.7,-9.42 -23.57,-9.42l-86.54 0c-8.02,0 -12.13,4 -12.43,12.01 -0.3,7.98 3.84,12.27 12.43,12.84 2.86,0.6 5.99,1.17 9.42,1.73 3.45,0.57 6.55,1.13 9.44,1.7 3.43,0.6 6.55,1.46 9.42,2.59 2.85,1.13 5.72,2.56 8.55,4.27 11.45,8.58 18.72,19.16 21.88,31.73 3.13,12.57 4.7,25.98 4.7,40.26l0 481.65 53.99 0 0 -292.26 290.53 0 0 292.26 54 0 0 -588.78z"/>
  <path fill="none" fill-rule="nonzero" stroke="#2B2A29" stroke-width="6.44" stroke-miterlimit="10" d="M9552.92 2804.07c-12.87,-37.13 -31.02,-68.83 -54.4,-95.12 -23.46,-26.28 -51.62,-46.57 -84.42,-60.85 -32.89,-14.27 -69.28,-21.42 -109.27,-21.42 -40.02,0 -76.46,7.27 -109.27,21.84 -32.9,14.57 -61,35.01 -84.42,61.26 -23.45,26.31 -41.45,58.16 -54.02,95.57 -12.58,37.42 -18.84,78.72 -18.84,123.84 0,45.15 5.84,86.29 17.55,123.42 11.71,37.13 28.99,68.83 51.88,95.12 22.82,26.88 50.83,47.44 83.97,61.71 33.14,14.27 71.15,21.42 113.98,21.42 41.15,0 78.28,-7.15 111.41,-21.42 33.14,-14.27 61.12,-34.56 84,-60.85 22.82,-26.28 40.41,-58.14 52.68,-95.57 12.27,-37.39 18.41,-78.96 18.41,-124.7 0,-45.68 -6.4,-87.1 -19.25,-124.26zm-53.99 221.1c-7.72,31.44 -19.6,59.15 -35.58,83.13 -16.6,24.59 -37.85,44.13 -63.83,58.7 -26.01,14.57 -57.3,21.88 -93.86,21.88 -37.7,0 -69.73,-7.57 -95.98,-22.74 -26.29,-15.11 -47.71,-34.99 -64.28,-59.54 -16.56,-24.01 -28.57,-51.58 -35.99,-82.72 -7.45,-31.11 -11.15,-62.69 -11.15,-94.7 0,-34.27 4,-67.29 12.01,-98.99 7.99,-31.71 20.26,-59.84 36.86,-84.42 17.13,-23.99 38.71,-43.27 64.69,-57.84 25.98,-14.57 57,-21.84 93,-21.84 36.53,0 67.82,7.42 93.8,22.29 26.02,14.84 47.29,34.27 63.89,58.26 16.54,24.58 28.69,52.56 36.41,84 7.69,31.4 11.56,64 11.56,97.68 0,33.16 -3.88,65.44 -11.56,96.84z"/>
  <path fill="none" fill-rule="nonzero" stroke="#2B2A29" stroke-width="6.44" stroke-miterlimit="10" d="M9770.55 2647.23c-4.86,-6.25 -12.72,-9.41 -23.57,-9.41l-86.54 0c-8.02,0 -12.15,3.99 -12.43,11.98 -0.3,8.02 3.84,12.31 12.43,12.87 2.83,0.57 5.99,1.16 9.42,1.7 3.42,0.6 6.55,1.17 9.42,1.73 3.45,0.57 6.55,1.43 9.44,2.56 2.85,1.17 5.69,2.56 8.55,4.29 11.45,8.55 18.72,18.98 21.84,31.29 3.16,12.28 4.74,25.57 4.74,39.84l0 274.25c-0.59,26.85 1.85,53.13 7.3,78.85 5.4,25.69 15.52,48.54 30.4,68.54 14.3,20.02 34.56,36.14 60.84,48.42 26.29,12.28 60.55,18.45 102.84,18.45 45.14,0 81.29,-6.58 108.43,-19.72 27.12,-13.11 47.86,-30.54 62.13,-52.27 14.3,-21.13 23.57,-45 27.86,-71.58 4.27,-26.55 6.41,-52.98 6.41,-79.26l0 -371.93 -46.25 0 0 372.8c0,27.41 -2.03,52.41 -5.99,74.97 -4.03,22.59 -11.74,41.86 -23.19,57.83 -11.98,16 -28.28,28.3 -48.81,36.86 -20.58,8.58 -47.44,12.87 -80.6,12.87 -30.84,0 -55.84,-4.86 -74.97,-14.57 -19.16,-9.71 -34.15,-23.15 -45,-40.29 -10.85,-16.56 -18.12,-35.99 -21.84,-58.28 -3.72,-22.29 -5.57,-45.98 -5.57,-71.13l0 -340.23c0,-7.98 -2.44,-15.14 -7.3,-21.43z"/>
  <path fill="none" fill-rule="nonzero" stroke="#2B2A29" stroke-width="6.44" stroke-miterlimit="10" d="M10590.29 2994.76c-15.44,-20.26 -34.27,-38.15 -56.53,-53.55 -22.32,-15.43 -45.74,-29.02 -70.29,-40.73 -24.58,-11.72 -45.7,-23.28 -63.43,-34.72 -29.12,-18.27 -48.72,-35.85 -58.68,-52.68 -10.01,-16.87 -15.02,-36.98 -15.02,-60.44 0,-29.14 10.29,-51.28 30.87,-66.42 20.56,-15.14 47.68,-22.7 81.41,-22.7 32.57,1.7 59.84,5.42 81.82,11.14 22.02,5.72 39.88,11.15 53.58,16.27l0 -47.11c-13.7,-3.45 -31.85,-7.15 -54.4,-11.14 -22.59,-4 -46.69,-6.02 -72.44,-6.02 -54.86,0 -98.39,11.74 -130.67,35.16 -32.3,23.42 -48.42,59.12 -48.42,107.09 0,26.88 7.69,51.16 23.12,72.85 15.41,21.72 32.84,39.72 52.27,53.99 25.15,17.14 50,32 74.58,44.58 24.55,12.58 46.54,25.42 65.97,38.56 19.44,12.57 35.28,26.84 47.56,42.85 12.27,16 18.41,35.43 18.41,58.28 -0.57,20.56 -4.41,37.99 -11.53,52.27 -7.15,14.3 -16.45,26.02 -27.89,35.13 -14.27,12.01 -31.41,19.72 -51.41,23.15 -19.99,3.43 -40.59,4.29 -61.71,2.56 -21.15,-1.7 -41.41,-5.42 -60.84,-11.14 -19.44,-5.69 -35.43,-12.27 -47.98,-19.7 -7.45,-0.57 -13.3,1.44 -17.59,5.99 -4.26,4.59 -6.7,9.71 -7.26,15.44 -1.17,6.28 -0.45,12.57 2.11,18.86 2.59,6.28 7.3,10.58 14.16,12.84 9.15,3.43 22.14,6.55 38.97,9.42 16.87,2.86 35.01,5.15 54.44,6.85 19.44,1.73 39.28,2.3 59.57,1.73 20.26,-0.57 38.98,-3.16 56.11,-7.72 40.59,-9.15 71.42,-27.7 92.58,-55.72 21.13,-27.98 31.71,-61.68 31.71,-101.1 0,-29.15 -7.72,-53.85 -23.15,-74.14z"/>
  <path fill="none" fill-rule="nonzero" stroke="#2B2A29" stroke-width="6.44" stroke-miterlimit="10" d="M11098.07 3102.74c-7.15,-0.86 -11.29,1.85 -12.43,8.13 -1.72,9.71 -3.72,19.17 -5.99,28.28 -2.29,9.15 -5.99,17.73 -11.14,25.72 -5.15,7.42 -12.73,13.44 -22.74,17.99 -9.98,4.59 -23.87,6.86 -41.54,6.86l-116.56 0c-18.3,0 -31.85,-0.99 -40.7,-3.02 -8.88,-1.99 -16.72,-5.84 -23.57,-11.56 -5.72,-4.56 -9.56,-11 -11.56,-19.28 -2.03,-8.28 -3.02,-16.42 -3.02,-24.44l0 -194.52 138.83 0c16.6,0 30.46,1.43 41.6,4.29 11.14,2.86 19.84,7.69 26.13,14.55 8.55,10.3 14.57,24.85 17.97,43.71 0,6.85 3.72,10.28 11.14,10.28 7.42,0 11.15,-3.43 11.15,-10.28l0 -160.25c0,-4.59 -3.43,-6.71 -10.28,-6.44 -6.86,0.3 -10.28,2.71 -10.28,7.3 0,17.13 -3.58,29.41 -10.73,36.83 -7.15,7.45 -16.69,13.44 -28.7,18 -5.72,2.3 -12.84,3.72 -21.42,4.29 -8.56,0.57 -17.43,0.86 -26.58,0.86l-138.83 0 0 -161.11c0,-16.01 0.99,-27.71 3.02,-35.14 1.99,-7.42 6.13,-13.73 12.43,-18.86 6.85,-4.56 13.4,-7.57 19.72,-9 6.28,-1.43 14.84,-2.15 25.69,-2.15l113.98 0c20.58,0 35.99,1.85 46.3,5.57 10.28,3.72 17.97,8.7 23.12,14.98 5.73,8.02 12.01,22.86 18.87,44.58 0,5.12 3.24,7.71 9.83,7.71 6.58,0 9.86,-2.29 9.86,-6.85l-4.26 -102 -392.52 0c-9.16,0 -13.71,4.44 -13.71,13.3 0,8.88 4.86,13.29 14.57,13.29 6.28,0 12.84,1.13 19.7,3.43 6.88,2.26 12.27,5.13 16.29,8.55 9.12,8.02 15.29,16.72 18.42,26.13 3.15,9.44 4.7,22.74 4.7,39.87l0 484.22 347.95 0 5.99 -115.71c0,-4.55 -3.57,-7.3 -10.7,-8.13z"/>
  <path fill="#2B2A29" fill-rule="nonzero" d="M1402.85 1603.1c299.88,-33.91 514.07,-60.11 840.69,-155.1 399.95,-116.3 662.85,-265.17 787.65,-414.2 124.73,-149.02 205.66,-297.02 212.19,-432.6 8.17,-169.37 -68.24,-247.02 -122.44,-297.92 -54.2,-50.89 -163.23,-85.69 -289.72,-77.53 -206.26,13.32 -551.71,193.21 -783.57,404.03 -231.91,210.82 -533.91,558.95 -644.79,973.32zm-37.76 67.34c-12.64,96.93 2.36,234.96 18.39,295.87 55.06,209.51 126.28,302.27 257.54,420.33 119.4,107.33 393.55,211.47 685.14,206.08 146.14,-2.69 390.39,-38.38 655.02,-234.66l16.33 2.06c-330.58,302 -735.26,367.29 -1171.26,367.29 -294.88,0 -552.01,-85.9 -701.92,-265.26 -150,-179.3 -194.2,-389.07 -194.2,-604.75 0,-44.02 9,-147.14 13.59,-190.02 0,0 -678.44,-25.51 -943.73,-86.71 475.45,40.8 955.97,40.8 955.97,40.8 42.04,-194.04 132.71,-409.21 262.22,-620.3 186.48,-304.09 420.86,-544.56 701.92,-714.16 280.99,-169.61 562.5,-286.98 862.47,-286.98 282.25,0 372.95,42.4 476.36,127.21 103.3,84.86 137.1,185.61 154.97,298.07 26.38,165.74 -15.46,403.44 -179.71,596.26 -177.08,207.9 -337.7,342.17 -803.94,501.98 -376.64,129.12 -900.37,130.46 -1065.16,146.93z"/>
  <path fill="#447638" fill-rule="nonzero" d="M11152.81 1102.46c0,0 -20.42,-293.83 199.97,-469.31 220.35,-175.48 567.26,-248.93 567.26,-248.93 0,0 19.13,-4.35 6.88,13.25 -12.25,17.61 -83.41,114.78 -108.65,197.41 -25.26,82.66 -90.64,270.74 -180.6,348.16 -208.89,179.83 -484.87,159.41 -484.87,159.41z"/>
 </g>
</svg>
